# xmcd CD database file
#
# Track frame offsets:
#	150
#	37743
#	61653
#	81295
#	113102
#	131938
#	156481
#	189904
#
# Disc length: 2801 seconds
#
# Revision: 0
# Processed by: cddbd v1.5.2PL0 Copyright (c) Steve Scherf et al.
# Submitted via: CDex 1.70beta2
#
DISCID=620aef08
DTITLE=Stone and the rockets - live Quasimodo PS 25.12.2009 CD 2
DYEAR=2009
DGENRE=Blues
TTITLE0=Fool for your stockings 
TTITLE1=All or nothing 
TTITLE2=Tube snake boogie 
TTITLE3=Hard to handle
TTITLE4=Have a little faith 
TTITLE5=C  C  Rider 
TTITLE6=White room
TTITLE7=Great balls of fire
EXTD=YEAR: 2009
EXTT0=
EXTT1=
EXTT2=
EXTT3=
EXTT4=
EXTT5=
EXTT6=
EXTT7=
PLAYORDER=
